<svg xmlns="http://www.w3.org/2000/svg" width="194" height="120" fill="none" viewBox="0 0 194 120"><path fill="url(#paint0_linear_11_4)" fill-rule="evenodd" d="M0.526457 10.0966C-1.39728 5.2433 2.18787 0 7.43444 0H40.0069C43.0675 0 45.7782 1.81999 46.9149 4.63663L72.8418 69.2895C73.5413 71.0228 73.5413 72.9728 72.8418 74.7495L56.5337 115.353C54.0415 121.549 45.2098 121.549 42.7177 115.353L0.526457 10.0966ZM63.443 9.87993C61.6942 5.06996 65.2793 0 70.4385 0H98.8136C101.961 0 104.759 1.94999 105.809 4.8533L129.375 69.5062C129.943 71.1095 129.943 72.8862 129.375 74.5328L115.209 113.403C112.848 119.903 103.579 119.903 101.218 113.403L63.443 9.87993ZM127.145 0C121.898 0 118.313 5.2433 120.237 10.0966L162.428 115.353C164.92 121.549 173.752 121.549 176.244 115.353L192.552 74.7495C193.252 72.9728 193.252 71.0228 192.552 69.2895L166.626 4.63663C165.489 1.81999 162.778 0 159.718 0H127.145Z" clip-rule="evenodd"/><defs><linearGradient id="paint0_linear_11_4" x1="96.67" x2="230.022" y1="-28.333" y2="151.175" gradientUnits="userSpaceOnUse"><stop stop-color="#F213A4"/><stop offset="1" stop-color="#5204BF"/></linearGradient></defs></svg>